<?xml version="1.0" encoding="UTF-8" standalone="no"?>
<!-- Created with Inkscape (http://www.inkscape.org/) -->

<svg
   xmlns:dc="http://purl.org/dc/elements/1.1/"
   xmlns:cc="http://creativecommons.org/ns#"
   xmlns:rdf="http://www.w3.org/1999/02/22-rdf-syntax-ns#"
   xmlns:svg="http://www.w3.org/2000/svg"
   xmlns="http://www.w3.org/2000/svg"
   xmlns:sodipodi="http://sodipodi.sourceforge.net/DTD/sodipodi-0.dtd"
   xmlns:inkscape="http://www.inkscape.org/namespaces/inkscape"
   width="744.09448819"
   height="1052.3622047"
   id="svg2"
   version="1.1"
   inkscape:version="0.48.2 r9819"
   sodipodi:docname="colabre.svg">
  <defs
     id="defs4" />
  <sodipodi:namedview
     id="base"
     pagecolor="#ffffff"
     bordercolor="#666666"
     borderopacity="1.0"
     inkscape:pageopacity="0.0"
     inkscape:pageshadow="2"
     inkscape:zoom="0.37510152"
     inkscape:cx="-1262.6748"
     inkscape:cy="1247.1419"
     inkscape:document-units="px"
     inkscape:current-layer="layer1"
     showgrid="false"
     showborder="false"
     inkscape:window-width="1280"
     inkscape:window-height="748"
     inkscape:window-x="-8"
     inkscape:window-y="-8"
     inkscape:window-maximized="1" />
  <metadata
     id="metadata7">
    <rdf:RDF>
      <cc:Work
         rdf:about="">
        <dc:format>image/svg+xml</dc:format>
        <dc:type
           rdf:resource="http://purl.org/dc/dcmitype/StillImage" />
        <dc:title />
      </cc:Work>
    </rdf:RDF>
  </metadata>
  <g
     inkscape:label="Layer 1"
     inkscape:groupmode="layer"
     id="layer1">
    <path
       style="fill:#2c89a0;fill-opacity:1;fill-rule:nonzero;stroke:none"
       d="m -1004.595,27.77654 c -2.0624,0 -3.7225,1.660142 -3.7225,3.722479 l 0,52.555043 c 0,2.062338 1.6601,3.722478 3.7225,3.722478 l 52.55502,0 c 2.06234,0 3.72248,-1.66014 3.72248,-3.722478 l 0,-52.555043 c 0,-2.062337 -1.66014,-3.722479 -3.72248,-3.722479 l -52.55502,0 z m 9.64997,3.170373 c 3.98711,0 7.2214,3.234302 7.2214,7.221408 0,3.987105 -3.23429,7.218019 -7.2214,7.218019 -3.9871,0 -7.21797,-3.230914 -7.21797,-7.218019 0,-3.987106 3.23087,-7.221408 7.21797,-7.221408 z m 31.5039,6.344135 c 4.95368,0 8.96918,4.018887 8.96918,8.972564 0,4.953678 -4.0155,8.969177 -8.96918,8.969177 -4.95368,0 -8.96918,-4.015499 -8.96918,-8.969177 0,-4.953677 4.0155,-8.972564 8.96918,-8.972564 z m -19.7979,10.283392 c 6.34312,0 11.48583,5.142706 11.48583,11.48583 0,6.343124 -5.14271,11.485831 -11.48583,11.485831 -6.34313,0 -11.48583,-5.142707 -11.48583,-11.485831 0,-6.343124 5.1427,-11.48583 11.48583,-11.48583 z m -2.86214,27.54093 2.56068,0 0,9.34515 -2.56068,0 0,-9.34515 z m 12.14293,0 2.56069,0 0,5.592186 c 0,0.908274 0.32621,1.361634 0.97888,1.361634 0.27842,0 0.51733,-0.09511 0.71131,-0.28452 0.19397,-0.189414 0.29128,-0.418302 0.29129,-0.687594 -10e-6,-0.278412 -0.0918,-0.511722 -0.27435,-0.701136 -0.18258,-0.189414 -0.40594,-0.28452 -0.67066,-0.284526 -0.18713,6e-6 -0.40166,0.08296 -0.64356,0.247266 l 0,-2.8215 c 0.30123,-0.02736 0.52902,-0.04062 0.68421,-0.04062 0.96303,6e-6 1.7857,0.346104 2.47261,1.039854 0.68691,0.693762 1.03308,1.529766 1.03309,2.506494 -10e-6,0.999558 -0.35171,1.842192 -1.05002,2.526816 -0.69833,0.684624 -1.55643,1.026306 -2.57424,1.026306 -0.51119,0 -1.00765,-0.111684 -1.49373,-0.335328 -0.48608,-0.223644 -0.88752,-0.52554 -1.20243,-0.904368 -0.54771,-0.65724 -0.82309,-1.508718 -0.82309,-2.553912 l 0,-5.687028 z m 15.98059,2.367618 c 0.99041,6e-6 1.82311,0.336162 2.49633,1.009368 0.67321,0.673224 1.00936,1.503702 1.00937,2.489556 -10e-6,0.100416 -0.009,0.258516 -0.0271,0.477588 l -3.88167,0 c -0.0594,-0.196254 -0.0881,-0.374238 -0.0881,-0.538554 -10e-6,-0.228204 0.0398,-0.451572 0.12193,-0.670656 l 1.30066,0 c -0.0913,-0.506622 -0.37771,-0.762102 -0.85694,-0.762108 -0.3195,6e-6 -0.57823,0.138282 -0.77905,0.409842 -0.20082,0.271572 -0.30146,0.61878 -0.30145,1.043244 -1e-5,0.442728 0.0973,0.799878 0.29129,1.07373 0.19397,0.273852 0.44717,0.409848 0.76211,0.409842 0.25559,6e-6 0.50444,-0.127152 0.74178,-0.382746 l 1.45648,1.754544 c -0.68007,0.534006 -1.43533,0.799368 -2.266,0.799368 -1.01325,0 -1.86473,-0.339468 -2.55392,-1.019532 -0.68918,-0.680064 -1.03308,-1.522692 -1.03308,-2.526816 0,-0.999552 0.3472,-1.844394 1.04324,-2.53359 0.69604,-0.689184 1.55083,-1.033074 2.56408,-1.03308 z m -40.6255,0.0068 c 0.8535,6e-6 1.60655,0.27096 2.25923,0.809526 0.65267,0.538584 1.05962,1.22415 1.21937,2.059392 l -2.59456,0.09484 c -0.22364,-0.292098 -0.50786,-0.436938 -0.85017,-0.436938 -0.29211,0 -0.53095,0.09622 -0.71808,0.287904 -0.18713,0.1917 -0.28113,0.43275 -0.28113,0.724854 0,0.29667 0.0995,0.54435 0.29808,0.74517 0.19853,0.200825 0.4451,0.301458 0.74178,0.301458 0.43359,0 0.74212,-0.252096 0.92468,-0.758724 l 2.54037,-0.09484 c -0.073,0.985867 -0.43902,1.794169 -1.10082,2.428585 -0.66181,0.634422 -1.46908,0.951792 -2.41843,0.951792 -1.00412,0 -1.85227,-0.348313 -2.54377,-1.046628 -0.6914,-0.698322 -1.0364,-1.55421 -1.0364,-2.567466 0,-0.963036 0.3483,-1.787988 1.0466,-2.472619 0.6983,-0.684617 1.53652,-1.026299 2.51325,-1.026305 z m 7.909,0 c 0.9676,6e-6 1.79469,0.347214 2.48617,1.043244 0.69146,0.696042 1.03646,1.530936 1.03647,2.503104 -10e-6,0.985866 -0.34943,1.826286 -1.05002,2.520042 -0.70061,0.69375 -1.54655,1.039854 -2.53698,1.039854 -0.99043,0 -1.83748,-0.347208 -2.54036,-1.043244 -0.70288,-0.696036 -1.0534,-1.535352 -1.0534,-2.516652 0,-0.999552 0.35052,-1.841076 1.0534,-2.523426 0.70288,-0.682345 1.57321,-1.022916 2.60472,-1.022922 z m 27.95755,0 c 0.20081,6e-6 0.46293,0.0243 0.78243,0.07451 l 0,2.740207 c -0.178,-0.100404 -0.34171,-0.152419 -0.48775,-0.152419 -0.46555,0 -0.69776,0.358333 -0.69775,1.07034 l 0,3.238117 -2.56069,0 0,-3.732642 c 0,-0.98586 0.27096,-1.770954 0.80953,-2.35746 0.53857,-0.586489 1.25507,-0.88065 2.15423,-0.880656 z m -16.12962,0.0068 c 1.10453,5e-6 1.97478,0.322901 2.61149,0.968724 0.6367,0.64584 0.95517,1.527143 0.95518,2.645364 l 0,3.349896 -2.56069,0 0,-3.163602 c 0,-0.360564 -0.0851,-0.6492 -0.26081,-0.863725 -0.17572,-0.214512 -0.41463,-0.321773 -0.7113,-0.321779 -0.26929,6e-6 -0.50149,0.09843 -0.69775,0.294684 -0.19627,0.196266 -0.29468,0.428471 -0.29468,0.697751 0,0.282985 0.0896,0.51858 0.26758,0.701143 0.178,0.182568 0.40358,0.270972 0.67744,0.270972 0.22363,0 0.43152,-0.05748 0.62323,-0.176131 l 0,2.648749 c -0.20995,0.03654 -0.40238,0.05418 -0.57582,0.05418 -1.02694,0 -1.88283,-0.337261 -2.56746,-1.012758 -0.68463,-0.675498 -1.02631,-1.522548 -1.02631,-2.540364 0,-0.990427 0.345,-1.830846 1.03648,-2.520043 0.69147,-0.689184 1.53299,-1.033073 2.52342,-1.033079 z m -11.89906,2.520042 c -0.27386,0 -0.50606,0.09953 -0.69775,0.298068 -0.1917,0.198546 -0.28792,0.4407 -0.28791,0.728237 -10e-6,0.282985 0.0973,0.524029 0.29129,0.724848 0.19397,0.200826 0.42508,0.301459 0.69437,0.301459 0.27384,0 0.50716,-0.100633 0.70114,-0.301459 0.19397,-0.200819 0.29129,-0.441863 0.2913,-0.724848 -10e-6,-0.287537 -0.0962,-0.529691 -0.28791,-0.728237 -0.19171,-0.198541 -0.42612,-0.298068 -0.70453,-0.298068 z"
       id="rect3766"
       inkscape:connector-curvature="0"
       inkscape:export-filename="D:\Projects\Colabre\application\source\colabre\main\static\img\logo.png"
       inkscape:export-xdpi="90"
       inkscape:export-ydpi="90" />
    <text
       sodipodi:linespacing="125%"
       id="text3783"
       y="72.649231"
       x="-1951.744"
       style="font-size:129.35975647px;font-style:normal;font-variant:normal;font-weight:normal;font-stretch:normal;text-align:start;line-height:125%;letter-spacing:0px;word-spacing:0px;writing-mode:lr-tb;text-anchor:start;fill:#000000;fill-opacity:1;stroke:none;font-family:Bauhaus 93;-inkscape-font-specification:'Bauhaus 93,'"
       xml:space="preserve"><tspan
         y="72.649231"
         x="-1951.744"
         id="tspan3785"
         sodipodi:role="line">colabre</tspan></text>
    <path
       transform="matrix(1.4175448,0,0,1.4175448,-2017.112,-570.91747)"
       d="m 246.47723,288.68686 a 74.751289,74.751289 0 1 1 -149.502582,0 74.751289,74.751289 0 1 1 149.502582,0 z"
       sodipodi:ry="74.751289"
       sodipodi:rx="74.751289"
       sodipodi:cy="288.68686"
       sodipodi:cx="171.72594"
       id="path3789"
       style="fill:#000000;fill-opacity:1;fill-rule:nonzero;stroke:none"
       sodipodi:type="arc" />
    <path
       transform="matrix(1.1702942,0,0,1.1702942,-2042.6134,-440.28648)"
       d="m 456.58894,137.16397 a 70.710678,70.710678 0 1 1 -141.42135,0 70.710678,70.710678 0 1 1 141.42135,0 z"
       sodipodi:ry="70.710678"
       sodipodi:rx="70.710678"
       sodipodi:cy="137.16397"
       sodipodi:cx="385.87827"
       id="path3791"
       style="fill:#000000;fill-opacity:1;fill-rule:nonzero;stroke:none"
       sodipodi:type="arc" />
    <path
       transform="matrix(0.99903161,0,0,0.99903161,-1954.325,-441.01562)"
       d="m 139.40105,86.656349 a 66.670067,66.670067 0 1 1 -133.3401369,0 66.670067,66.670067 0 1 1 133.3401369,0 z"
       sodipodi:ry="66.670067"
       sodipodi:rx="66.670067"
       sodipodi:cy="86.656349"
       sodipodi:cx="72.73098"
       id="path3793"
       style="fill:#000000;fill-opacity:1;fill-rule:nonzero;stroke:none"
       sodipodi:type="arc" />
    <rect
       style="fill:#2c89a0;fill-opacity:1;fill-rule:nonzero;stroke:none"
       id="rect3018"
       width="250.51682"
       height="250.51682"
       x="-2252.5044"
       y="-403.98569"
       rx="19.650494"
       ry="19.650494" />
    <g
       id="g3064"
       transform="translate(-958.49913,-501.9176)"
       style="fill:#ffffff">
      <g
         transform="translate(17.412845,-2)"
         id="g3045"
         style="fill:#ffffff">
        <path
           sodipodi:type="arc"
           style="fill:#ffffff;fill-opacity:1;fill-rule:nonzero;stroke:none"
           id="path2998"
           sodipodi:cx="171.72594"
           sodipodi:cy="288.68686"
           sodipodi:rx="74.751289"
           sodipodi:ry="74.751289"
           d="m 246.47723,288.68686 c 0,41.284 -33.4673,74.75129 -74.75129,74.75129 -41.284,0 -74.751292,-33.46729 -74.751292,-74.75129 0,-41.284 33.467292,-74.75129 74.751292,-74.75129 41.28399,0 74.75129,33.46729 74.75129,74.75129 z"
           transform="matrix(0.54713617,0,0,0.54713617,-1268.7434,84.821348)" />
        <path
           sodipodi:type="arc"
           style="fill:#ffffff;fill-opacity:1;fill-rule:nonzero;stroke:none"
           id="path3000"
           sodipodi:cx="385.87827"
           sodipodi:cy="137.16397"
           sodipodi:rx="70.710678"
           sodipodi:ry="70.710678"
           d="m 456.58894,137.16397 c 0,39.05243 -31.65825,70.71068 -70.71067,70.71068 -39.05243,0 -70.71068,-31.65825 -70.71068,-70.71068 0,-39.052428 31.65825,-70.710677 70.71068,-70.710677 39.05242,0 70.71067,31.658249 70.71067,70.710677 z"
           transform="matrix(0.34314057,0,0,0.34314057,-1252.5983,135.25001)" />
        <path
           sodipodi:type="arc"
           style="fill:#ffffff;fill-opacity:1;fill-rule:nonzero;stroke:none"
           id="path3002"
           sodipodi:cx="72.73098"
           sodipodi:cy="86.656349"
           sodipodi:rx="66.670067"
           sodipodi:ry="66.670067"
           d="m 139.40105,86.656349 c 0,36.820861 -29.84921,66.670071 -66.67007,66.670071 -36.820861,0 -66.6700669,-29.84921 -66.6700669,-66.670071 0,-36.820861 29.8492059,-66.670067 66.6700669,-66.670067 36.82086,0 66.67007,29.849206 66.67007,66.670067 z"
           transform="matrix(0.69174679,0,0,0.69174679,-1280.5881,101.90852)" />
      </g>
      <text
         sodipodi:linespacing="125%"
         id="text2992"
         y="332.04376"
         x="-1270.326"
         style="font-size:58.7998848px;font-style:normal;font-variant:normal;font-weight:normal;font-stretch:normal;text-align:start;line-height:125%;letter-spacing:0px;word-spacing:0px;writing-mode:lr-tb;text-anchor:start;fill:#ffffff;fill-opacity:1;stroke:none;font-family:Bauhaus 93;-inkscape-font-specification:'Bauhaus 93,'"
         xml:space="preserve"><tspan
           y="332.04376"
           x="-1270.326"
           id="tspan2994"
           sodipodi:role="line">colabre</tspan></text>
    </g>
    <path
       style="fill:#2c89a0;fill-opacity:1;fill-rule:nonzero;stroke:none"
       d="m -1349.9175,224.10122 c -2.6072,0 -4.7075,2.10031 -4.7075,4.7075 l 0,50.58502 c 0,2.60719 2.1003,4.70001 4.7075,4.70001 l 50.585,0 c 2.6072,0 4.7075,-2.09282 4.7075,-4.70001 l 0,-50.58502 c 0,-2.60719 -2.1003,-4.7075 -4.7075,-4.7075 l -50.585,0 z m 14.7287,3.78696 c 6.1,0 11.039,4.93903 11.039,11.03904 0,6.10001 -4.939,11.04653 -11.039,11.04653 -6.1,0 -11.0465,-4.94652 -11.0465,-11.04653 0,-6.10001 4.9465,-11.03904 11.0465,-11.03904 z m 26.359,10.13346 c 3.2093,0 5.8151,2.59837 5.8151,5.80766 0,3.2093 -2.6058,5.81515 -5.8151,5.81515 -3.2093,0 -5.8077,-2.60585 -5.8077,-5.81515 0,-3.20929 2.5984,-5.80766 5.8077,-5.80766 z m -13.0747,10.49271 c 5.4096,0 9.7966,4.38706 9.7966,9.79668 0,5.40962 -4.387,9.79669 -9.7966,9.79669 -5.4097,0 -9.7892,-4.38707 -9.7892,-9.79669 0,-5.40962 4.3795,-9.79668 9.7892,-9.79668 z m -10.5376,22.26519 2.567,0 0,9.38506 -2.567,0 0,-9.38506 z m 12.199,0 2.5671,0 0,5.62056 c 0,0.91222 0.3324,1.36959 0.9879,1.36959 0.2796,0 0.5162,-0.0942 0.711,-0.2844 0.1948,-0.19023 0.2918,-0.42556 0.2919,-0.69602 -1e-4,-0.27962 -0.094,-0.51326 -0.277,-0.7035 -0.1833,-0.19024 -0.4077,-0.2844 -0.6735,-0.2844 -0.188,0 -0.4007,0.082 -0.6437,0.24697 l 0,-2.82898 c 0.3026,-0.0275 0.5253,-0.0449 0.6811,-0.0449 0.9672,1e-5 1.8023,0.35101 2.4922,1.04778 0.6899,0.69677 1.0328,1.53368 1.0328,2.51465 0,1.0039 -0.3539,1.84951 -1.0552,2.53711 -0.7014,0.6876 -1.5598,1.03281 -2.5821,1.03281 -0.5134,0 -1.0161,-0.11217 -1.5043,-0.33679 -0.4882,-0.22461 -0.8886,-0.5251 -1.2049,-0.90557 -0.5501,-0.6601 -0.8233,-1.51731 -0.8233,-2.56705 l 0,-5.71785 z m 16.046,2.37994 c 0.9947,1e-5 1.831,0.34171 2.5071,1.01784 0.6762,0.67615 1.0104,1.50955 1.0104,2.49969 0,0.10085 -0,0.25895 -0.023,0.47898 l -3.8992,0 c -0.06,-0.19711 -0.09,-0.38131 -0.09,-0.54634 0,-0.22919 0.037,-0.45353 0.1197,-0.67357 l 1.3098,0 c -0.092,-0.50882 -0.3794,-0.76337 -0.8607,-0.76337 -0.3209,0 -0.5842,0.13888 -0.7858,0.41162 -0.2017,0.27275 -0.2994,0.62147 -0.2994,1.04777 0,0.44466 0.097,0.80268 0.2919,1.07771 0.1948,0.27505 0.4471,0.41912 0.7634,0.41911 0.2567,1e-5 0.51,-0.13246 0.7484,-0.38917 l 1.4594,1.75876 c -0.6831,0.53633 -1.4409,0.80829 -2.2752,0.80829 -1.0177,0 -1.8674,-0.34231 -2.5596,-1.02532 -0.6922,-0.68302 -1.0403,-1.52863 -1.0403,-2.53711 0,-1.0039 0.3488,-1.85241 1.0478,-2.5446 0.6991,-0.69217 1.5569,-1.04028 2.5746,-1.04029 z m -40.8034,0.007 c 0.8573,0 1.6122,0.27486 2.2677,0.81576 0.6555,0.54092 1.067,1.22675 1.2274,2.06561 l -2.6045,0.0973 c -0.2246,-0.29337 -0.5093,-0.44156 -0.8531,-0.44156 -0.2934,0 -0.5381,0.0994 -0.726,0.29188 -0.1879,0.19253 -0.2769,0.43258 -0.2769,0.72595 0,0.29797 0.1,0.54672 0.2994,0.74841 0.1994,0.2017 0.4429,0.30685 0.7409,0.30685 0.4355,0 0.7447,-0.25455 0.928,-0.76338 l 2.5521,-0.0973 c -0.073,0.99015 -0.443,1.80264 -1.1077,2.43982 -0.6646,0.63717 -1.4713,0.95796 -2.4248,0.95796 -1.0085,0 -1.8576,-0.35391 -2.5521,-1.05526 -0.6945,-0.70135 -1.0477,-1.55688 -1.0477,-2.57453 0,-0.96722 0.3538,-1.79711 1.0552,-2.48472 0.7014,-0.68759 1.5412,-1.0328 2.5221,-1.0328 z m 7.9407,0 c 0.9718,0 1.8052,0.34872 2.4997,1.04777 0.6944,0.69907 1.0403,1.53827 1.0403,2.51466 0,0.99015 -0.3517,1.83286 -1.0553,2.52962 -0.7037,0.69677 -1.5499,1.04778 -2.5446,1.04778 -0.9947,0 -1.8461,-0.34872 -2.5521,-1.04778 -0.7059,-0.69906 -1.0552,-1.54406 -1.0552,-2.52962 0,-1.00389 0.3493,-1.84431 1.0552,-2.52963 0.706,-0.6853 1.576,-1.0328 2.612,-1.0328 z m 28.0803,0 c 0.2017,0 0.4649,0.0244 0.7858,0.0748 l 0,2.75415 c -0.1787,-0.10085 -0.3397,-0.14968 -0.4864,-0.14969 -0.4676,10e-6 -0.7035,0.35513 -0.7035,1.07023 l 0,3.2481 -2.5671,0 0,-3.74205 c 0,-0.99014 0.2674,-1.78341 0.8083,-2.37246 0.5409,-0.58904 1.2599,-0.88312 2.1629,-0.88312 z m -16.1956,0.007 c 1.1094,1e-5 1.98,0.3243 2.6194,0.97293 0.6395,0.64865 0.9655,1.53378 0.9655,2.65686 l 0,3.36036 -2.5745,0 0,-3.17326 c 0,-0.36213 -0.085,-0.6527 -0.262,-0.86815 -0.1765,-0.21545 -0.4205,-0.32182 -0.7184,-0.32182 -0.2705,0 -0.499,0.10226 -0.6961,0.29936 -0.1971,0.19712 -0.2993,0.42557 -0.2993,0.69602 0,0.28422 0.091,0.52015 0.2694,0.70351 0.1788,0.18336 0.406,0.27691 0.681,0.27691 0.2247,0 0.4362,-0.0604 0.6287,-0.17962 l 0,2.65686 c -0.2108,0.0367 -0.4095,0.0599 -0.5837,0.0599 -1.0314,0 -1.887,-0.3394 -2.5746,-1.01784 -0.6876,-0.67843 -1.0328,-1.52984 -1.0328,-2.55207 0,-0.99473 0.3458,-1.83744 1.0403,-2.52963 0.6945,-0.69218 1.5424,-1.04028 2.5371,-1.04029 z m -11.9521,2.52963 c -0.275,0 -0.511,0.1 -0.7035,0.29936 -0.1925,0.19941 -0.2844,0.44465 -0.2844,0.73344 0,0.28421 0.097,0.52427 0.2919,0.72596 0.1948,0.2017 0.4256,0.30685 0.696,0.30685 0.2751,0 0.5087,-0.10515 0.7035,-0.30685 0.1949,-0.20169 0.2919,-0.44175 0.2919,-0.72596 0,-0.28879 -0.092,-0.53403 -0.2844,-0.73344 -0.1925,-0.1994 -0.4313,-0.29936 -0.711,-0.29936 z"
       id="rect3072"
       inkscape:connector-curvature="0"
       inkscape:export-filename="D:\Projects\Colabre\application\source\colabre\main\static\img\logo.png"
       inkscape:export-xdpi="90"
       inkscape:export-ydpi="90" />
    <rect
       style="fill:#ff0000;fill-opacity:1;fill-rule:nonzero;stroke:none"
       id="rect3870"
       width="19"
       height="19"
       x="-1358.9744"
       y="91.071503"
       rx="2.1766047"
       ry="2.1766047" />
    <g
       transform="matrix(0.67427488,0.67427488,-0.67427488,0.67427488,-62.243273,2.8999707)"
       style="font-size:40px;font-style:normal;font-weight:normal;line-height:125%;letter-spacing:0px;word-spacing:0px;fill:#800000;fill-opacity:1;stroke:none;font-family:Sans"
       id="text3875"
       inkscape:export-filename="D:\Projects\Colabre\application\source\colabre\main\static\img\ajax-request-cancel.png"
       inkscape:export-xdpi="90"
       inkscape:export-ydpi="90">
      <path
         d="m -875.65533,1002.1318 0,-7.85159 -7.79297,0 0,-3.28125 7.79297,0 0,-7.79297 3.32031,0 0,7.79297 7.79297,0 0,3.28125 -7.79297,0 0,7.85159 z"
         id="path3880"
         inkscape:connector-curvature="0" />
    </g>
    <path
       inkscape:export-ydpi="90"
       inkscape:export-xdpi="90"
       inkscape:export-filename="D:\Projects\Colabre\application\source\colabre\main\static\img\logo.png"
       inkscape:connector-curvature="0"
       id="path3003"
       d="m -1942.6912,-822.43915 c -10.949,0 -19.7693,8.82032 -19.7693,19.7693 l 0,212.43342 c 0,10.94898 8.8203,19.73785 19.7693,19.73785 l 212.4333,0 c 10.9491,0 19.7693,-8.78887 19.7693,-19.73785 l 0,-212.43342 c 0,-10.94898 -8.8202,-19.7693 -19.7693,-19.7693 l -212.4333,0 z m 61.8536,15.90346 c 25.6172,0 46.3587,20.74162 46.3587,46.35881 0,25.61719 -20.7415,46.39026 -46.3587,46.39026 -25.6171,0 -46.3901,-20.77307 -46.3901,-46.39026 0,-25.61719 20.773,-46.35881 46.3901,-46.35881 z m 110.6955,42.55579 c 13.4776,0 24.4207,10.91194 24.4207,24.38946 0,13.47756 -10.9431,24.42091 -24.4207,24.42091 -13.4775,0 -24.3896,-10.94335 -24.3896,-24.42091 0,-13.47752 10.9121,-24.38946 24.3896,-24.38946 z m -54.9076,44.06448 c 22.7178,0 41.1411,18.4236 41.1411,41.14147 0,22.71788 -18.4233,41.14152 -41.1411,41.14152 -22.7182,0 -41.1101,-18.42364 -41.1101,-41.14152 0,-22.71787 18.3919,-41.14147 41.1101,-41.14147 z m -44.253,93.50338 10.7802,0 0,39.41287 -10.7802,0 0,-39.41287 z m 51.2301,0 10.7806,0 0,23.60373 c 0,3.83089 1.3959,5.75163 4.1487,5.75163 1.1742,0 2.1678,-0.39559 2.9859,-1.19434 0.8181,-0.79888 1.2254,-1.78716 1.2258,-2.92296 -4e-4,-1.17427 -0.3947,-2.15545 -1.1632,-2.95437 -0.7698,-0.79892 -1.7122,-1.19435 -2.8284,-1.19435 -0.7895,0 -1.6828,0.34436 -2.7032,1.03716 l 0,-11.88039 c 1.2707,-0.11549 2.206,-0.18856 2.8603,-0.18856 4.0617,4e-5 7.5688,1.47407 10.466,4.40018 2.8973,2.92611 4.3373,6.44074 4.3373,10.56036 0,4.21591 -1.4862,7.76707 -4.4313,10.65467 -2.9456,2.8876 -6.5505,4.33732 -10.8437,4.33732 -2.156,0 -4.2671,-0.47106 -6.3173,-1.41436 -2.0502,-0.94326 -3.7317,-2.20517 -5.06,-3.80297 -2.3102,-2.77211 -3.4575,-6.37199 -3.4575,-10.78041 l 0,-24.01229 z m 67.3857,9.99464 c 4.1773,4e-5 7.6893,1.43502 10.5286,4.27445 2.8398,2.83951 4.2433,6.3394 4.2433,10.49753 0,0.42352 0,1.08747 -0.097,2.01149 l -16.3749,0 c -0.2519,-0.82777 -0.3779,-1.60132 -0.3779,-2.29437 0,-0.96249 0.1554,-1.90462 0.5027,-2.82868 l 5.5005,0 c -0.3863,-2.13681 -1.5933,-3.2058 -3.6145,-3.2058 -1.3476,0 -2.4534,0.58323 -3.3,1.72861 -0.8471,1.14543 -1.2574,2.60989 -1.2574,4.40015 0,1.86736 0.4074,3.37088 1.2259,4.52588 0.8181,1.15508 1.8776,1.7601 3.2059,1.76006 1.078,4e-5 2.1418,-0.55627 3.1429,-1.63433 l 6.1288,7.38597 c -2.8687,2.25233 -6.0511,3.39444 -9.5547,3.39444 -4.2739,0 -7.8422,-1.43754 -10.7492,-4.30587 -2.9069,-2.86836 -4.3687,-6.41953 -4.3687,-10.65467 0,-4.21591 1.4648,-7.77926 4.4002,-10.68613 2.9359,-2.90679 6.5383,-4.36869 10.8122,-4.36873 z m -171.3552,0.0294 c 3.6003,0 6.7705,1.15429 9.5233,3.42582 2.7528,2.27161 4.4809,5.15177 5.1545,8.67459 l -10.9377,0.40862 c -0.9432,-1.23202 -2.1388,-1.85435 -3.5826,-1.85435 -1.2322,0 -2.2598,0.41743 -3.0489,1.22576 -0.7891,0.80854 -1.1628,1.81663 -1.1628,3.04865 0,1.25133 0.4199,2.29597 1.2573,3.14297 0.8374,0.84705 1.86,1.28863 3.1114,1.28863 1.8289,0 3.1274,-1.06899 3.8972,-3.20584 l 10.7176,-0.40861 c -0.3065,4.15816 -1.8604,7.57024 -4.6518,10.2461 -2.791,2.67581 -6.1788,4.02298 -10.183,4.02298 -4.2352,0 -7.8011,-1.48625 -10.7176,-4.4316 -2.9166,-2.94534 -4.3999,-6.53816 -4.3999,-10.81182 0,-4.06187 1.4858,-7.54702 4.4314,-10.43466 2.9455,-2.88756 6.4723,-4.33728 10.5916,-4.33728 z m 33.3472,0 c 4.0811,0 7.581,1.46447 10.4976,4.40015 2.9162,2.93577 4.3688,6.46001 4.3688,10.56039 0,4.15817 -1.477,7.69716 -4.4318,10.62323 -2.9552,2.9261 -6.5089,4.40018 -10.6861,4.40018 -4.1773,0 -7.7528,-1.46446 -10.7177,-4.40018 -2.9644,-2.93573 -4.4313,-6.48433 -4.4313,-10.62323 0,-4.21586 1.4669,-7.74523 4.4313,-10.62326 2.9649,-2.87794 6.6185,-4.33728 10.9692,-4.33728 z m 117.9242,0 c 0.847,0 1.9523,0.10247 3.2999,0.31413 l 0,11.56614 c -0.7504,-0.42352 -1.4265,-0.62858 -2.0426,-0.62863 -1.9637,5e-5 -2.9544,1.49138 -2.9544,4.49447 l 0,13.6405 -10.7806,0 0,-15.71486 c 0,-4.15812 1.123,-7.48949 3.3945,-9.96322 2.2715,-2.47369 5.291,-3.70869 9.0832,-3.70869 z m -68.014,0.0294 c 4.659,4e-5 8.3151,1.36191 11.0003,4.08585 2.6856,2.72403 4.0546,6.44116 4.0546,11.15757 l 0,14.11194 -10.8117,0 0,-13.32621 c 0,-1.52077 -0.3569,-2.74103 -1.1003,-3.64582 -0.7412,-0.90479 -1.7659,-1.35149 -3.0169,-1.35149 -1.136,0 -2.0956,0.42944 -2.9233,1.25717 -0.8277,0.82781 -1.2569,1.78719 -1.2569,2.92296 0,1.19359 0.3821,2.18438 1.1313,2.95441 0.7509,0.77003 1.705,1.16289 2.8599,1.16289 0.9436,0 1.8318,-0.25365 2.6403,-0.75432 l 0,11.15757 c -0.8853,0.15413 -1.7197,0.25155 -2.4513,0.25155 -4.3314,0 -7.9245,-1.42532 -10.8121,-4.27445 -2.8876,-2.84909 -4.3373,-6.42461 -4.3373,-10.7175 0,-4.1774 1.4522,-7.71639 4.3688,-10.62326 2.9165,-2.90683 6.4773,-4.36869 10.6546,-4.36873 z m -50.1932,10.62326 c -1.1549,0 -2.146,0.41996 -2.9544,1.25718 -0.8084,0.83743 -1.1943,1.86732 -1.1943,3.0801 0,1.19355 0.4073,2.20169 1.2258,3.04869 0.8181,0.84705 1.7873,1.28863 2.9229,1.28863 1.1553,0 2.1363,-0.44158 2.9543,-1.28863 0.8185,-0.847 1.2259,-1.85514 1.2259,-3.04869 0,-1.21278 -0.3864,-2.24267 -1.1944,-3.0801 -0.8084,-0.83739 -1.8112,-1.25718 -2.9858,-1.25718 z"
       style="fill:#a02c89;fill-opacity:1;fill-rule:nonzero;stroke:none" />
  </g>
</svg>
